<svg width="1387" height="542" viewBox="0 0 1387 542" fill="none" xmlns="http://www.w3.org/2000/svg">
<mask id="mask0_11673_23462" style="mask-type:alpha" maskUnits="userSpaceOnUse" x="0" y="0" width="1387" height="542">
<rect width="1387" height="542" transform="matrix(1 0 0 -1 0 542)" fill="#D9D9D9"/>
</mask>
<g mask="url(#mask0_11673_23462)">
<path d="M2.69287 581.267C120.387 550.029 224.662 506.292 309.014 452.783C433.334 372.94 426.571 324.024 545.979 278.413C662.034 234.116 821.32 221.911 950.553 238.644C1126.89 261.496 1134.87 323.688 1360.91 422.192C1493.84 480.071 1743.11 588.731 2037.12 578.208C2185.66 572.885 2333.33 537.583 2470.6 504.789C2638.84 464.592 2663 443.942 2753.8 434.429C2861.65 423.11 3028.39 431.155 3268.19 532.321" stroke="#E4F1FD" stroke-miterlimit="10"/>
<path d="M-0.599609 569.826C105.454 542.383 201.062 504.844 281.447 459.085C289.134 454.649 296.82 450.091 304.565 445.411C430.157 368.076 425.186 321.363 543.091 276.883C594.485 257.419 652.677 243.558 714.284 236.105C758.411 230.788 803.669 228.566 848.891 229.497C882.709 230.203 916.269 232.922 948.937 237.604C985.339 242.556 1019.94 250.66 1051.35 261.587C1109.15 281.778 1149.61 309.035 1211.85 343.236C1258.74 368.975 1309.75 392.517 1364.32 413.596C1393.22 424.915 1426.97 438.558 1465.98 452.539C1570.36 490.044 1703.93 530.791 1864.2 544.863C1918.58 549.775 1973.84 551.417 2028.92 549.758C2037.36 549.513 2045.74 549.146 2054 548.718C2135.84 544.527 2213.81 533.422 2293.45 518.677C2353.04 507.787 2409.39 494.204 2465.28 481.447C2488.69 476.002 2509.61 471.046 2528.51 466.396C2642.66 438.222 2672.31 423.11 2750.28 416.502C2809.52 411.485 2886.15 412.372 2983.43 430.238C3063.19 444.86 3157.62 471.199 3268.19 514.761" stroke="#E4F1FD" stroke-miterlimit="10"/>
<path d="M-3.6626 558.323C101.293 531.917 196.312 495.638 276.765 451.254C284.471 446.971 292.178 442.586 299.884 438.099C427.036 363.242 423.973 318.793 540.259 275.353C591.776 255.636 650.153 241.506 712.03 233.78C756.417 228.428 801.972 226.288 847.446 227.417C881.315 228.331 914.85 231.412 947.319 236.594C983.54 242.136 1017.96 250.563 1049.39 261.587C1109.5 282.39 1152.15 308.759 1213.7 340.697C1260.81 364.937 1312.41 386.603 1367.73 405.367C1396.63 415.401 1429.63 427.698 1468.24 439.874C1571.11 472.331 1696.53 506.379 1855.18 517.484C1910 521.481 1965.39 522.792 2020.65 521.4C2029.21 521.155 2037.65 520.849 2045.97 520.451C2129.2 516.597 2205.2 507.083 2286.46 493.959C2347.67 484.048 2403.5 470.71 2459.85 458.137C2483.26 452.936 2504.41 448.195 2523.77 443.759C2638.27 417.42 2668.96 403.531 2746.63 398.637C2805.82 394.904 2881.88 396.954 2979.67 415.034C3059.54 429.84 3155.2 455.689 3268.19 497.141" stroke="#E4F1FD" stroke-miterlimit="10"/>
<path d="M-7.3042 547.005C96.7932 521.599 191.424 486.504 272.083 443.392C279.77 439.232 287.515 435.01 295.202 430.697C424.03 358.348 422.585 316.101 537.311 273.824C591.639 253.817 645.159 239.409 709.602 231.425C754.287 226.029 800.18 223.969 845.943 225.306C879.876 226.435 913.389 229.891 945.642 235.585C981.702 241.711 1015.98 250.462 1047.48 261.588C1109.78 283.002 1154.58 308.423 1215.49 338.066C1262.86 360.82 1315.1 380.563 1371.14 396.893C1400.33 405.642 1432.35 416.594 1470.49 426.964C1572.39 454.68 1689.13 481.815 1846.17 490.013C1901.41 493.084 1957 494.055 2012.51 492.919C2021.12 492.705 2029.84 492.43 2037.94 492.063C2119.59 488.523 2200.42 480.829 2279.29 469.089C2342.12 460.187 2397.49 446.971 2454.53 434.735C2477.94 429.718 2499.27 425.221 2519.15 420.999C2633.93 396.526 2665.72 383.922 2743.05 380.649C2802.23 378.141 2877.89 381.444 2976.03 399.738C3056.08 414.544 3152.77 440.21 3268.19 479.704" stroke="#E4F1FD" stroke-miterlimit="10"/>
<path d="M-10.6572 535.594C92.4341 511.176 186.566 477.311 267.401 435.56C275.088 431.522 282.89 427.484 290.52 423.324C420.735 353.362 421.313 313.593 534.42 272.264C589.962 252.043 641.69 237.237 707.289 229.069C752.231 223.62 798.43 221.652 844.44 223.226C878.528 224.535 912.104 228.354 944.196 234.575C980.014 241.236 1014.11 250.249 1045.69 261.404C1110.19 283.46 1157.41 307.842 1217.46 335.466C1259.82 354.922 1309.93 371.93 1374.72 388.45C1404.14 395.975 1435.47 405.612 1472.97 414.147C1574.47 437.243 1681.97 457.28 1837.09 462.573C1892.69 464.743 1948.46 465.386 2004.18 464.5C2012.91 464.316 2021.52 464.072 2029.78 463.766C2111.59 460.927 2192.8 454.418 2272.53 444.31C2337.09 436.417 2391.65 423.293 2449.27 411.485C2472.39 406.652 2494.29 402.308 2514.64 398.361C2629.65 375.601 2662.54 364.436 2739.64 362.814C2798.82 361.56 2873.96 366.057 2972.5 384.534C3052.55 399.554 3150.4 424.762 3268.19 462.236" stroke="#E4F1FD" stroke-miterlimit="10"/>
<path d="M-13.9502 524.184C88.1115 500.736 181.721 468.102 262.721 427.729C270.408 423.844 278.21 419.989 285.839 416.013C417.615 348.712 419.985 310.931 531.416 270.765C588.172 250.299 638.108 235.095 704.805 226.744C750.047 221.248 796.588 219.372 842.881 221.176C876.976 222.674 910.46 226.85 942.233 233.566C977.837 240.789 1011.79 250.117 1043.43 261.373C1110.19 284.011 1159.89 307.26 1218.96 332.865C1262.6 351.71 1313.81 366.516 1377.84 380.037C1407.61 386.339 1438.24 394.599 1474.94 401.451C1576.84 420.112 1674.45 432.868 1827.96 435.316C1881.31 436.172 1940.32 437.243 1995.86 436.233C2004.7 436.08 2013.2 435.866 2021.64 435.622C2103.47 433.486 2184.89 428.169 2265.25 419.714C2331.43 412.831 2385.58 399.799 2443.84 388.236C2467.25 383.586 2489.04 379.578 2509.9 375.785C2625.15 354.585 2659.3 344.184 2735.88 344.827C2795.07 345.316 2869.74 350.547 2968.63 369.3C3048.74 384.595 3147.8 409.282 3267.96 444.707" stroke="#E4F1FD" stroke-miterlimit="10"/>
<path d="M-17.3032 512.804C83.7477 490.304 176.85 458.889 258.039 419.898C265.725 416.166 273.586 412.464 281.157 408.671C414.551 343.817 418.712 308.362 528.468 269.235C586.264 248.586 634.524 232.954 702.435 224.388C747.888 218.88 794.67 217.095 841.146 219.096C875.353 220.803 908.841 225.345 940.382 232.556C975.696 240.373 1009.48 250.005 1041.24 261.312C1110.19 284.592 1162.61 306.832 1220.41 330.296C1265.37 348.65 1317.73 361.071 1380.91 371.625C1411.13 376.703 1444.02 379.64 1476.85 388.48C1583.37 390.836 1667.17 412.954 1818.54 407.753C1872 405.887 1931.94 408.487 1987.25 407.753C1996.21 407.6 2004.88 407.447 2013.2 407.233C2102.32 405 2170.52 402.399 2257.91 394.996C2325.7 389.153 2379.28 376.183 2438.17 364.986C2461.29 360.52 2483.54 356.727 2504.93 353.147C2620.23 333.814 2655.6 325.615 2732.07 327.145C2791.31 328.399 2865.52 335.313 2964.76 354.218C3044.98 369.514 3145.08 393.987 3267.73 427.362" stroke="#E4F1FD" stroke-miterlimit="10"/>
<path d="M-20.6543 501.393C79.3742 479.842 171.966 449.668 253.358 412.097C261.103 408.487 268.963 404.969 276.477 401.359C411.778 339.014 417.673 305.823 525.752 267.706C584.994 246.842 631.231 230.813 700.24 222.033C746.087 216.456 793.318 214.773 840.165 217.047C878.252 218.729 909.52 224.786 939.227 231.577C974.278 239.973 1007.94 249.909 1039.85 261.282C1111 285.173 1166.37 306.251 1222.83 327.726C1269.07 345.377 1322.82 355.564 1384.66 363.243C1415.53 367.066 1447.66 367.954 1479.51 375.663C1586.03 371.319 1660.01 383.463 1809.87 380.374C1863.62 379.242 1924.25 379.915 1979.39 379.272C1988.4 379.272 1997.19 379.058 2005.45 378.905C2096.08 377.1 2162.31 376.183 2251.26 370.034C2320.62 365.2 2373.68 352.321 2433.21 341.461C2456.32 337.179 2478.75 333.63 2500.65 330.265C2616.25 312.583 2652.72 305.792 2728.89 309.065C2788.13 311.543 2861.82 319.65 2961.46 338.769C3041.74 354.065 3143 378.293 3268.07 409.619" stroke="#E4F1FD" stroke-miterlimit="10"/>
<path d="M-23.9512 490.013C75.0088 469.378 167.058 440.457 248.674 404.357C256.419 400.87 264.337 397.505 272.14 394.109C408.828 334.273 416.63 303.375 522.86 266.299C583.315 245.221 627.761 228.763 697.925 219.83C743.993 214.191 791.493 212.579 838.544 215.058C877.152 216.924 907.899 223.471 937.433 230.66C973.903 239.531 1003.9 249.932 1037.71 261.251C1111.11 285.724 1177.52 300.439 1224.51 325.156C1277.74 337.179 1327.5 360.122 1388.13 354.83C1419.69 352.077 1451.13 356.298 1481.88 362.845C1588.45 351.832 1653.01 358.776 1800.97 352.964C1854.95 350.853 1916.56 351.343 1971.24 350.884C1980.43 350.884 1989.21 350.884 1997.53 350.608C2089.55 349.232 2153.87 350.088 2244.32 345.255C2315.47 341.492 2367.84 328.674 2427.94 318.151C2451.06 314.052 2473.72 310.717 2496.09 307.597C2611.68 291.537 2649.59 286.367 2725.48 291.169C2784.78 294.932 2858.01 304.232 2957.94 323.566C3038.33 339.045 3140.46 362.845 3268.19 392.121" stroke="#E4F1FD" stroke-miterlimit="10"/>
<path d="M-27.3018 478.633C70.6471 458.871 162.178 431.149 243.994 396.465C251.739 393.13 259.657 390.071 267.517 386.737C406.229 329.408 415.303 300.806 519.972 264.738C581.698 243.477 624.294 226.591 695.557 217.444C741.915 211.779 789.737 210.259 837.043 212.947C876.171 214.997 906.398 222.125 935.817 229.619C971.593 238.797 1001.24 249.687 1035.75 261.22C1111.34 286.366 1181.22 299.337 1226.47 322.617C1281.55 333.324 1334.44 354.799 1391.71 346.448C1423.04 341.89 1454.65 344.612 1484.19 350.027C1590.82 332.345 1646.02 334.028 1792.01 325.554C1846.22 322.495 1908.3 322.74 1963.09 322.495H1989.5C2083.02 321.577 2145.55 324.116 2237.39 320.659C2310.21 317.937 2361.94 305.149 2422.69 294.993C2445.8 291.077 2468.63 287.988 2491.52 285.112C2607.11 270.612 2646.42 267.033 2722.01 273.426C2781.31 278.474 2854.08 288.967 2954.35 308.484C3034.81 324.116 3138.32 347.518 3268.25 374.775" stroke="#E4F1FD" stroke-miterlimit="10"/>
<path d="M-30.6533 467.284C66.1668 448.362 157.087 421.872 239.082 388.695C246.885 385.636 254.803 382.576 262.663 379.517C402.877 324.728 413.916 298.42 516.967 263.27C579.965 241.856 621 224.511 693.13 215.181C739.747 209.443 787.884 208.004 835.425 210.928C875.131 213.162 904.781 220.687 934.026 228.671C969.108 238.338 998.468 249.504 1033.67 261.221C1111.52 286.978 1184.8 298.267 1227.98 320.078C1284.97 329.5 1337.79 332.866 1394.84 338.097C1427.55 334.793 1457.72 332.988 1486.27 337.24C1592.9 312.767 1638.62 309.28 1782.76 298.236C1837.21 294.045 1900.09 293.831 1954.65 294.167C1964.01 294.167 1972.97 294.167 1981.24 294.167C2076.25 294.81 2136.71 297.991 2230.17 295.85C2304.72 294.167 2355.76 281.441 2417.2 271.622C2440.31 267.92 2463.43 265.014 2486.55 262.444C2602.14 249.504 2642.6 247.577 2718.08 255.561C2777.44 261.863 2849.69 273.549 2950.42 293.28C3030.93 309.035 3135.37 332.07 3267.9 357.308" stroke="#E4F1FD" stroke-miterlimit="10"/>
<path d="M-33.9478 455.904C61.9174 437.832 152.386 412.571 234.69 380.894C242.434 377.835 250.41 374.99 258.271 372.114C400.334 319.895 412.991 295.85 514.193 261.771C578.462 240.112 617.359 222.369 690.876 212.825C737.893 207.019 786.485 205.683 834.385 208.879C874.842 211.295 904.029 219.28 932.639 227.662C967.316 237.726 996.215 249.259 1031.99 261.312C1111.98 287.682 1188.79 297.288 1230 317.631C1288.84 325.738 1342.47 326.808 1398.48 329.867C1431.59 324.973 1461.3 321.485 1488.81 324.606C1595.45 293.555 1631.74 284.623 1773.98 271.01C1828.66 265.779 1892.29 265.411 1946.68 265.931C1956.15 265.931 1965.11 265.931 1973.44 265.931C2069.84 267.063 2128.44 272.05 2223.4 271.163C2299.58 270.52 2350.04 257.825 2412.11 248.372C2435.23 244.823 2458.35 242.254 2482.33 239.776C2597.92 228.335 2640 228.09 2714.96 237.665C2774.32 245.252 2846.1 258.1 2947.19 278.046C3027.76 293.923 3133.58 316.591 3268.3 339.779" stroke="#E4F1FD" stroke-miterlimit="10"/>
<path d="M-37.2993 444.554C57.5362 427.288 147.471 403.246 230.009 373.093C237.811 370.034 245.787 367.525 253.648 364.803C397.618 315.184 411.894 293.403 511.304 260.272C576.845 238.46 613.892 220.289 688.565 210.531C735.754 204.688 784.557 203.434 832.594 206.829C873.051 209.46 902.412 217.903 930.847 226.713C964.6 237.176 993.267 249.076 1029.91 261.159C1112.15 288.171 1192.38 296.064 1231.68 314.969C1292.42 321.791 1346.63 320.751 1401.77 321.302C1435.24 314.847 1464.54 309.647 1490.95 311.635C1597.64 273.885 1624.46 259.63 1764.85 243.447C1819.76 237.145 1884.14 237.084 1938.24 237.329C1947.83 237.329 1956.85 237.329 1965.17 237.329C2063.08 238.95 2119.78 244.334 2216.24 246.078C2294.03 247.485 2343.91 233.841 2406.62 224.664C2429.97 221.332 2453.64 218.676 2477.54 216.71C2593.13 206.737 2636.59 208.206 2711.26 219.371C2770.68 228.243 2841.94 242.254 2943.37 262.413C3024.29 278.413 3130.98 300.744 3268.13 321.883" stroke="#E4F1FD" stroke-miterlimit="10"/>
<path d="M-40.6528 439.752C53.1654 423.222 142.563 400.355 225.326 371.716C233.128 368.963 241.162 366.455 249.08 363.916C394.9 316.897 410.91 297.38 508.412 265.228C575.225 243.202 610.423 224.603 686.194 214.661C733.669 208.76 782.804 207.588 831.089 211.204C872.356 214.049 901.081 222.92 929.343 232.159C962.229 243.233 990.434 255.469 1027.94 267.706C1112.38 295.238 1196.13 301.571 1233.47 318.977C1296.06 324.514 1350.91 321.271 1405.18 319.497C1438.99 311.452 1467.83 304.568 1493.2 305.394C1599.95 260.976 1617.35 241.153 1755.77 222.798C1810.97 215.425 1876.11 215.272 1930.09 215.731L1957.14 216.007C2056.55 216.924 2111.28 226.408 2209.24 228.243C2288.83 229.773 2337.96 217.077 2401.3 208.359C2424.91 205.198 2448.83 202.757 2472.97 201.047C2588.27 192.543 2633.41 195.786 2707.74 208.512C2767.21 218.668 2838.01 233.841 2939.79 254.215C3020.7 270.337 3128.61 292.301 3268.19 311.39" stroke="#E4F1FD" stroke-miterlimit="10"/>
<path d="M-44.1206 437.824C48.6469 422.134 137.489 400.564 220.471 373.582C228.331 370.951 236.365 368.627 244.283 366.271C392.242 321.791 409.639 304.415 505.523 273.335C573.665 251.156 606.955 232.097 683.882 221.941C731.662 216.032 781.131 214.993 829.645 218.882C871.374 221.941 899.752 231.118 927.61 240.908C959.918 252.135 987.949 264.8 1025.86 277.25C1112.56 305.486 1199.71 310.044 1235.14 325.982C1299.64 330.234 1357.15 329.561 1408.53 320.659C1445.35 314.266 1471.13 302.305 1495.23 302.305C1601.98 251.217 1609.9 225.826 1746.47 204.993C1801.84 196.489 1867.84 196.275 1921.53 196.917C1931.36 196.917 1940.49 197.162 1948.76 197.284C2049.67 198.692 2102.44 209.919 2201.96 213.1C2283.17 215.7 2331.71 203.005 2395.69 194.745C2419.53 191.718 2443.69 189.491 2468.06 188.076C2583.3 180.979 2629.89 186.027 2703.92 200.313C2763.4 211.785 2833.73 228.121 2935.86 248.678C3016.77 264.922 3125.89 286.519 3267.9 303.742" stroke="#E4F1FD" stroke-miterlimit="10"/>
<path d="M-47.3003 435.958C44.4543 421.012 132.758 400.674 215.962 375.326C223.88 372.848 231.972 370.707 239.832 368.504C389.64 326.778 408.597 311.727 502.632 281.441C571.988 259.11 603.429 239.592 681.801 229.252C729.829 223.167 779.646 222.128 828.43 226.193C870.737 229.467 898.711 239.195 926.222 249.259C957.894 260.853 985.578 273.946 1024.48 286.581C1113.31 315.428 1203.93 318.273 1237.51 332.774C1303.81 335.833 1362.47 332.437 1412.4 321.608C1449.91 313.47 1474.94 300.194 1498.17 298.695C1604.92 240.908 1603.36 209.98 1738.14 186.792C1793.74 177.155 1860.38 176.911 1914.02 177.614L1941.41 178.104C2043.77 179.97 2094.63 192.971 2195.72 197.437C2278.66 201.139 2326.51 188.26 2391.19 180.459C2415.24 177.539 2439.65 175.495 2464.24 174.341C2579.37 168.62 2627.46 175.503 2701.21 191.35C2760.68 204.106 2830.5 221.605 2933.03 242.376C3041.56 265.231 3153.72 282.922 3268.19 295.238" stroke="#E4F1FD" stroke-miterlimit="10"/>
<path d="M-50.6519 435.346C40.1088 421.07 127.876 401.923 211.281 378.202C219.257 375.877 227.349 373.888 235.209 371.869C387.04 332.804 407.5 319.864 499.743 290.619C570.486 268.134 599.962 248.158 679.2 237.604C727.533 231.492 777.697 230.597 826.697 234.973C869.466 238.461 897.093 248.617 924.315 259.11C955.294 271.071 982.631 284.562 1022.11 297.379C1113.19 326.839 1207.05 327.971 1238.9 341.033C1307.1 342.685 1366.69 336.751 1415.41 324.055C1453.56 314.113 1477.89 299.307 1500.02 296.706C1606.83 232.251 1595.74 195.755 1728.67 170.211C1784.5 159.443 1851.95 159.198 1905.35 160.147C1915.35 160.33 1924.65 160.575 1932.92 160.759C2036.95 163.114 2085.67 177.828 2188.21 183.61C2272.76 188.383 2320.04 175.626 2385.35 168.07C2409.65 165.323 2434.3 163.523 2459.1 162.686C2574.17 158.311 2623.7 167.091 2697.16 184.467C2756.63 198.539 2825.99 217.169 2928.87 238.185C3038.36 261.164 3152.08 278.029 3268.19 288.508" stroke="#E4F1FD" stroke-miterlimit="10"/>
<path d="M-54.0044 437.09C35.7796 423.497 123.014 405.567 206.599 383.525C214.575 381.353 222.725 379.517 230.585 377.651C384.496 341.339 406.69 330.693 496.853 302.244C568.925 279.606 596.494 259.14 676.888 248.433C725.488 242.251 775.974 241.439 825.194 246.047C868.483 249.779 895.763 260.333 922.638 271.254C952.981 283.491 979.972 297.471 1020.14 310.473C1113.42 340.544 1210.87 340.024 1240.69 351.587C1310.74 351.954 1371.14 343.328 1418.82 328.766C1457.43 316.958 1481.24 300.745 1502.34 297.012C1609.14 225.857 1588.45 183.824 1719.65 155.956C1775.6 144.025 1843.91 143.719 1897.14 144.882C1907.2 145.096 1916.56 145.371 1924.83 145.585C2030.19 148.4 2077 164.919 2181.04 171.986C2267.27 177.859 2313.97 165.072 2379.8 157.883C2404.37 155.298 2429.27 153.713 2454.3 153.141C2569.31 150.082 2620.23 160.789 2693.4 179.695C2752.88 194.99 2821.83 214.875 2925.05 236.074C3035.34 259.286 3150.48 275.42 3268.01 284.133" stroke="#E4F1FD" stroke-miterlimit="10"/>
<path d="M-57.2974 438.834C31.5029 425.868 118.188 409.142 201.919 388.817C209.953 386.798 218.102 385.176 225.963 383.463C382.013 349.813 405.131 341.4 493.964 313.868C567.308 291.108 593.027 270.153 674.52 259.232C723.404 252.96 774.245 252.24 823.692 257.121C867.502 261.129 894.435 272.019 921.022 283.399C950.729 296.094 977.315 310.381 1018.18 323.565C1113.71 354.157 1214.68 352.077 1242.48 362.172C1306.29 361.77 1368.58 351.834 1422.17 333.508C1461.19 319.803 1484.59 302.213 1504.59 297.318C1611.46 219.494 1581.11 171.894 1710.64 141.7C1766.7 128.576 1835.88 128.332 1888.88 129.616C1899.11 129.861 1908.47 130.167 1916.79 130.442C2023.54 133.807 2068.63 151.856 2174.16 160.361C2261.95 167.305 2308.19 154.518 2374.66 147.696C2397.78 145.34 2422.17 144.973 2449.79 143.627C2564.35 138.029 2617.11 154.487 2689.99 174.953C2749.47 191.656 2817.96 212.58 2921.53 233.994C3032.72 257.436 3149.35 272.869 3268.31 279.881" stroke="#E4F1FD" stroke-miterlimit="10"/>
<path d="M-60.6509 440.578C27.2087 428.224 113.372 412.709 197.236 394.14C205.328 392.304 213.477 390.806 221.395 389.276C379.411 358.685 404.321 352.107 491.073 325.493C565.804 302.58 589.327 281.166 672.207 270.031C721.458 263.677 772.725 263.051 822.477 268.195C866.749 272.478 893.336 283.736 919.633 295.544C948.531 308.607 974.886 323.29 1016.44 336.659C1114.23 367.984 1218.73 364.191 1244.51 372.726C1310.01 370.908 1373.03 358.845 1425.58 338.066C1464.83 322.495 1487.94 303.498 1506.84 297.471C1613.77 212.978 1573.71 159.81 1701.56 127.261C1757.8 112.975 1827.79 112.761 1880.73 114.199C1891.02 114.474 1900.5 114.841 1908.76 115.116C2017.01 119.001 2060.13 138.916 2167.23 148.583C2256.75 156.629 2302.12 143.75 2369.51 137.356C2394.68 135.503 2420.01 134.359 2445.4 133.93C2560.12 129.984 2614.05 148.033 2686.7 170.028C2746.11 188.046 2814.2 210.102 2917.88 231.731C3029.91 255.354 3147.95 270.015 3268.13 275.231" stroke="#E4F1FD" stroke-miterlimit="10"/>
<path d="M-64.002 442.321C22.9564 430.548 108.625 416.251 192.614 399.493C200.705 397.811 208.855 396.434 216.773 395.119C376.869 367.22 403.282 362.876 488.416 336.995C564.244 314.113 585.86 292.179 669.838 280.86C719.296 274.415 770.842 273.872 820.745 279.269C865.537 283.828 891.834 295.452 917.727 307.689C946.163 321.088 971.998 336.2 1014.3 349.752C1114.23 381.689 1222.37 376.122 1246.07 383.402C1313.47 380.237 1377.36 366.11 1428.99 342.961C1468.35 325.462 1491.24 305.119 1509.1 297.961C1616.02 206.768 1566.26 147.849 1692.54 113.159C1748.9 97.6793 1819.7 97.4958 1872.41 99.0865C1882.81 99.3924 1892.35 99.7901 1900.61 100.127C2010.42 104.532 2051.52 126.16 2160.18 137.112C2251.38 146.289 2296.11 133.318 2364.02 127.322C2389.42 125.571 2414.99 124.641 2440.6 124.538C2555.5 122.244 2610.58 141.884 2682.94 165.439C2742.42 184.742 2810.1 207.961 2914.13 229.681C3027.05 253.515 3146.56 267.433 3267.96 270.887" stroke="#E4F1FD" stroke-miterlimit="10"/>
<path d="M-67.2402 444.065C31.7649 430.758 120.598 417.206 187.988 404.786C196.196 403.256 204.345 402.094 212.205 400.87C374.439 375.907 402.297 373.582 485.351 348.865C562.74 325.738 582.68 303.314 667.583 291.781C717.311 285.258 769.192 284.808 819.298 290.466C864.61 295.33 890.619 307.26 916.165 319.956C943.907 333.722 969.395 349.232 1012.4 362.967C1114.58 395.516 1226.24 388.266 1247.92 393.956C1317.16 389.41 1381.84 373.243 1432.46 347.824C1471.88 328.399 1497.13 307.903 1511.47 298.389C1644.4 209.888 1558.8 135.918 1683.58 99.0251C1739.99 82.3222 1811.78 82.1998 1864.26 83.9435C1874.78 84.28 1884.31 84.7389 1892.63 85.106C2003.78 90.0312 2042.9 113.372 2153.18 125.578C2246.06 135.888 2290.16 122.856 2358.76 117.288C2384.33 115.281 2410.21 114.553 2436.04 115.116C2550.99 117.196 2607.34 135.735 2679.47 160.789C2738.89 181.438 2806.05 205.789 2910.66 227.815C3024.55 251.847 3145.57 265.031 3268.13 266.757" stroke="#E4F1FD" stroke-miterlimit="10"/>
<path d="M-70.6484 445.809C29.4548 432.899 117.71 420.662 183.251 410.108C191.516 408.762 199.665 407.753 207.525 406.682C372.014 384.656 401.201 384.32 482.405 360.398C561.181 337.148 579.156 314.174 665.157 302.458C715.196 295.849 767.453 295.493 817.797 301.417C863.572 306.618 889.233 318.854 914.433 332.009C941.597 346.142 966.449 362.049 1010.37 375.969C1114.75 409.16 1229.6 400.197 1249.71 404.449C1329.12 398.331 1391.54 376.427 1435.81 352.444C1475.17 331.03 1500.08 308.912 1513.67 298.603C1642.26 201.108 1551.23 123.774 1674.45 84.6472C1730.92 66.7512 1803.69 66.6901 1855.94 68.5867C1866.57 68.9844 1876.22 69.4433 1884.49 69.841C1997.13 75.3168 2034.35 100.432 2146.13 113.862C2240.63 125.272 2284.09 112.149 2353.33 107.009C2379.16 105.156 2405.28 104.654 2431.3 105.51C2546.31 108.784 2603.99 129.341 2675.89 155.956C2735.25 177.92 2802 203.403 2907.08 225.643C2988.51 242.866 3106.88 261.557 3268.19 262.352" stroke="#E4F1FD" stroke-miterlimit="10"/>
<path d="M-74.0024 447.552C27.1412 434.949 114.818 424.18 178.568 415.401C186.89 414.269 195.04 413.412 202.9 412.342C369.296 393.467 400.159 395.088 479.513 372.022C558.868 348.956 575.686 325.187 662.843 313.287C713.145 306.566 765.751 306.293 816.292 312.492C862.53 318.059 887.96 330.54 912.812 344.123C939.341 358.593 964.02 374.928 1008.41 389.031C1115.04 422.682 1233.35 412.189 1251.5 414.973C1332.82 407.569 1395.3 383.096 1439.22 357.155C1478.47 333.967 1502.8 310.075 1515.92 299.031C1639.54 192.726 1543.6 111.812 1665.44 70.514C1721.9 51.3638 1795.59 51.3944 1847.73 53.4441C1858.42 53.8723 1868.13 54.3923 1876.62 54.8206C1990.71 60.9389 2026.03 87.6145 2139.31 102.36C2235.48 114.871 2278.37 101.656 2348.24 96.9449C2374.34 95.2366 2400.7 94.9495 2426.9 96.0883C2541.98 100.585 2600.87 123.162 2672.6 151.306C2731.89 174.586 2798.24 201.2 2903.78 223.654C2985.33 241 3104.8 259.354 3268.53 258.039" stroke="#E4F1FD" stroke-miterlimit="10"/>
<path d="M-77.2959 449.296C24.8303 437.059 111.929 427.699 173.887 420.663C182.268 419.714 190.417 418.98 198.277 418.246C366.696 402.308 399.119 405.856 476.624 383.616C558.175 360.245 572.162 336.2 660.475 324.086C711.062 317.247 764.043 317.069 814.791 323.566C861.49 329.531 886.689 342.257 911.195 356.237C937.088 371.105 961.362 387.807 1006.5 402.124C1115.27 436.539 1237.98 428.677 1253.29 425.527C1332.36 409.344 1399 389.826 1442.63 361.866C1481.7 336.812 1505.8 311.268 1518.23 299.184C1636.42 184.314 1535.92 99.5452 1656.42 56.0749C1712.89 35.7011 1787.56 35.854 1839.46 38.026C1850.33 38.4849 1860.04 39.0355 1868.36 39.4944C1983.95 46.0409 2017.24 74.5521 2132.09 90.582C2229.88 104.226 2272.13 90.8879 2342.7 86.6051C2369.06 85.0462 2395.66 84.9744 2422.05 86.3909C2537.18 92.0809 2597.35 116.707 2668.78 146.381C2728.08 170.854 2794.03 198.753 2899.97 221.421C2981.58 238.889 3102.25 256.846 3268.36 253.511" stroke="#E4F1FD" stroke-miterlimit="10"/>
<path d="M-80.6484 451.04C22.518 439.017 108.981 431.308 169.205 426.047C177.643 425.312 185.793 424.701 193.711 424.119C364.094 411.21 398.137 416.624 473.734 395.272C556.961 371.716 568.52 347.243 658.162 335.007C709.043 328.08 762.388 327.996 813.346 334.762C860.392 341.156 885.418 354.065 909.519 368.413C934.833 383.708 958.703 400.748 1004.54 415.217C1115.56 450.244 1240.87 436.998 1255.08 436.111C1341.78 430.635 1402.64 396.587 1445.81 366.608C1475.01 345.693 1499.97 323.207 1520.25 299.521C1632.96 176.299 1528 87.4617 1647.4 41.8194C1703.81 20.2219 1779.53 20.4054 1831.25 22.761C1842.18 23.2504 1852 23.8622 1860.15 24.3517C1977.13 31.5407 2008.52 61.7343 2124.98 78.9573C2224.33 93.7635 2266.06 80.2115 2337.26 76.4182C2363.89 75.0097 2390.74 75.1636 2417.31 76.877C2532.56 83.7601 2593.82 110.528 2665.14 141.639C2724.32 167.611 2789.87 196.459 2896.33 219.31C2978.05 236.9 3099.77 254.521 3268.36 249.137" stroke="#E4F1FD" stroke-miterlimit="10"/>
<path d="M-84 452.783C20.0334 441.281 105.977 434.979 164.524 431.37C358.258 419.439 393.745 428.31 470.845 406.896C555.228 383.433 565.226 358.226 655.793 345.714C706.959 338.671 760.678 338.671 811.843 345.714C908.826 359.786 911.484 399.616 1002.57 428.31C1115.79 463.98 1244.51 448.287 1256.88 446.665C1421.71 425.251 1498.58 329.47 1522.74 299.827C1629.84 168.529 1520.43 75.3781 1638.33 27.5638C1706.76 -0.182514 1805.25 6.14989 1852.18 9.20903C1970.6 16.8569 2000.08 48.7942 2118.04 67.3326C2250.97 88.2571 2280.28 58.1552 2412.8 67.3326C2624.22 82.1082 2658.15 166.449 2892.51 217.23C2974.29 234.943 3097.17 252.196 3268.19 244.762" stroke="#E4F1FD" stroke-miterlimit="10"/>
<path d="M-80.8789 448.96C21.305 437.457 105.803 430.605 164.351 426.811C352.941 414.208 389.757 422.529 466.395 401.084C549.217 377.835 560.256 353.362 648.569 340.758C698.665 333.753 751.252 333.395 801.671 339.718C897.382 351.679 901.081 390.53 990.781 418.123C1101.58 452.447 1226.42 438.161 1240.87 436.907C1376.05 425.312 1450.61 354.799 1487.31 317.172C1494.82 309.494 1500.26 302.886 1504.65 298.114C1614.46 173.821 1510.77 84.3107 1626.95 39.1579C1696.3 12.2681 1795.6 19.0289 1844.49 21.935C1889.3 24.5387 1932.73 31.7064 1972.39 43.043C2012.85 53.7806 2050.71 65.8948 2112.95 73.9403C2132.03 76.3876 2149.02 77.7336 2164.28 78.8961C2256.75 85.9627 2292.41 68.5562 2403.84 79.0491C2446.95 83.0549 2488.46 90.9061 2526.6 102.268C2630.12 132.859 2694.85 187.924 2855.12 228.121C2864.52 230.486 2874.34 232.791 2884.59 235.034C2967.13 253.206 3091.85 271.285 3265.47 264.341" stroke="#E4F1FD" stroke-miterlimit="10"/>
<path d="M-77.7578 445.136C22.3455 433.633 105.63 426.505 164.236 422.284C347.566 409.038 385.538 416.747 461.945 395.241C543.264 372.481 555.286 348.222 641.113 335.833C690.181 328.846 741.677 328.112 791.384 333.691C885.65 343.695 890.678 381.291 978.933 407.967C1087.36 440.73 1208.9 430.176 1224.74 427.148C1349.81 403.44 1430.96 349.905 1468.76 314.449C1476.44 307.23 1481.76 300.897 1486.1 296.431C1598.45 178.991 1500.89 93.3352 1615.21 50.7521C1685.15 24.7494 1785.54 31.9078 1836.4 34.6916C1881.56 37.1453 1925.58 43.7175 1966.5 54.1171C2007.59 63.8145 2046.03 74.3074 2107.52 80.5174C2126.65 82.4753 2143.76 83.2095 2159.02 84.372C2251.2 91.4386 2285.3 77.703 2394.48 90.7961C2437.09 95.9937 2477.9 104.707 2515.39 116.615C2615.03 147.207 2683 204.198 2846.51 245.741C2856.04 248.127 2865.98 250.513 2876.33 252.838C2959.56 271.469 3086.13 290.374 3262.41 283.95" stroke="#E4F1FD" stroke-miterlimit="10"/>
<path d="M-74.6362 441.312C23.3864 429.84 105.399 422.284 163.947 417.603C342.075 403.807 381.319 410.812 457.379 389.306C537.138 366.913 550.2 343.113 633.947 330.785C681.96 323.859 732.322 322.813 781.212 327.726C873.686 335.833 880.333 372.175 967.143 397.811C1073.2 429.136 1190.87 421.121 1208.73 417.45C1308.04 396.382 1392.47 359.447 1450.26 311.788C1458.12 305.027 1463.38 298.97 1467.6 294.779C1582.39 184.436 1491.07 102.298 1603.37 62.2849C1674.11 37.1388 1775.42 44.7561 1828.25 47.3563C1873.77 49.7073 1918.36 55.7 1960.49 65.1299C2002.33 73.7873 2041.4 82.6281 2101.97 87.0639C2121.28 88.4711 2138.44 88.624 2153.7 89.7865C2245.77 96.8837 2278.02 86.7274 2384.89 102.482C2426.92 108.9 2467.01 118.459 2503.95 130.871C2599.72 161.676 2671.21 220.289 2837.61 263.301C2847.2 265.748 2857.26 268.185 2867.78 270.612C2951.7 289.67 3080.18 309.402 3259.06 303.467" stroke="#E4F1FD" stroke-miterlimit="10"/>
<path d="M-71.5156 437.518C24.4263 426.016 105.226 418.062 163.889 413.045C336.816 398.698 377.389 405 452.871 383.463C531.011 361.407 545.345 338.127 626.549 325.829C673.554 318.868 722.86 317.407 771.04 321.547C862.184 327.665 869.987 362.845 955.41 387.471C1059.1 417.603 1171.51 405.612 1192.72 407.661C1314.96 394.599 1391.83 340.36 1431.83 309.035C1439.86 302.764 1445 297.012 1449.51 293.066C1566.84 189.729 1481.76 111.323 1591.98 73.9403C1663.65 49.6508 1765.71 57.6963 1820.56 60.1742C1866.49 62.4111 1911.67 67.8207 1954.94 76.2653C1997.59 83.8825 2037.13 91.0409 2096.95 93.7329C2116.37 94.6201 2133.59 94.1612 2148.96 95.3236C2240.92 102.421 2271.32 95.9661 2376.22 114.26C2420.66 122.03 2457.13 133.165 2493.43 145.279C2585.44 176.146 2660.11 236.717 2829.69 280.982C2839.32 283.491 2849.49 285.989 2860.2 288.477C2944.88 308.025 3075.21 328.583 3256.69 323.137" stroke="#E4F1FD" stroke-miterlimit="10"/>
<path d="M-68.4526 433.694C25.2352 422.223 104.994 413.871 163.946 408.671C331.556 393.803 373.169 399.249 448.651 377.835C525.174 356.054 540.374 333.324 619.555 321.088C665.467 314.13 713.615 312.317 760.925 315.765C850.336 320.292 859.699 353.912 943.677 377.498C1044.94 405.917 1153.25 394.996 1176.83 397.964C1295.43 386.094 1372.24 335.619 1413.45 306.373C1421.65 300.561 1426.74 295.085 1431.36 291.414C1551.17 195.143 1472.51 120.439 1580.54 85.5956C1653.13 62.1626 1756 70.667 1812.76 72.9613C1870.56 75.2863 1911.3 81.6187 1949.33 87.3699C1992.8 93.947 2033.25 103.491 2091.8 100.402C2109.11 99.4144 2126.58 99.5686 2143.82 100.861C2235.71 107.958 2264.15 105.052 2367.03 126.068C2410.09 134.848 2445.92 146.931 2482.62 159.718C2570.88 190.554 2648.73 252.991 2821.42 298.695C2831.17 301.265 2841.46 303.834 2852.29 306.404C2937.65 326.38 3069.83 347.763 3253.97 342.838" stroke="#E4F1FD" stroke-miterlimit="10"/>
<path d="M-65.3335 429.84C26.5049 418.368 104.819 409.619 163.54 404.082C326.121 388.786 369.064 393.436 444.199 371.961C519.334 350.486 535.46 328.338 612.271 316.071C679.199 305.394 734.973 307.689 750.982 309.677C836.347 320.384 849.525 344.704 932.116 367.25C1030.95 394.232 1135.27 384.289 1161.05 388.144C1275.95 377.437 1352.64 330.846 1395.24 303.62C1403.56 298.267 1408.59 293.066 1413.27 289.64C1535.57 200.436 1463.5 129.525 1569.32 97.098C1642.95 74.5216 1746.47 83.4848 1805.25 85.6262C1864.02 87.7676 1905.23 93.5188 1943.96 98.3828C1988.17 103.92 2030.02 112.21 2086.89 106.918C2104.05 105.238 2121.61 105.021 2138.9 106.275C2230.68 113.373 2257.21 114.015 2358.01 137.723C2399.74 147.512 2434.76 160.575 2471.52 173.913C2556.08 204.504 2637.17 269.052 2812.92 316.193C2822.75 318.824 2833.15 321.455 2844.14 324.086C2930.25 344.521 3064.28 366.73 3251.02 362.325" stroke="#E4F1FD" stroke-miterlimit="10"/>
<path d="M-62.2119 426.108C27.5458 414.544 104.588 405.367 163.367 399.616C320.747 383.953 364.961 387.716 439.749 366.241C513.151 345.132 530.49 323.413 605.047 311.176C670.126 300.5 724.339 301.815 740.579 303.712C824.269 313.562 838.833 335.588 920.095 357.094C1016.5 382.668 1116.6 373.644 1144.81 378.508C1256.07 368.994 1332.47 326.502 1376.51 301.02C1383.01 296.874 1389.11 292.555 1394.78 288.08C1519.44 205.942 1454.13 138.855 1557.42 108.814C1632.15 87.1251 1736.29 96.5778 1797.04 98.5051C1855.47 100.402 1898.41 105.633 1937.89 109.579C1982.91 114.076 2026.14 120.898 2081.28 113.648C2098.35 111.255 2116.14 110.652 2133.64 111.873C2225.37 119.001 2249.93 123.131 2348.71 149.593C2389.16 160.391 2423.26 174.372 2460.31 188.382C2541.22 218.974 2625.49 285.357 2804.31 333.936C2814.22 336.628 2824.73 339.32 2835.87 342.012C2922.56 362.906 3058.56 385.941 3247.96 382.026" stroke="#E4F1FD" stroke-miterlimit="10"/>
<path d="M-59.0908 422.345C28.5862 410.843 104.357 401.359 163.252 395.119C315.372 379.028 360.857 381.934 435.588 360.459C507.429 339.687 525.808 318.518 598.054 306.343C661.63 295.666 713.993 296.003 730.696 297.808C812.767 306.71 828.95 326.533 908.593 347.029C1002.57 371.166 1098.8 363.09 1129.09 368.78C1236.65 360.459 1312.65 321.761 1358.36 298.42C1364.92 294.616 1371.08 290.623 1376.8 286.458C1503.95 211.418 1445.41 148.216 1546.15 120.5C1621.97 99.6676 1726.7 109.549 1789.41 111.323C1848.36 113.036 1892.29 117.716 1932.46 120.745C1980.2 124.221 2028.64 124.087 2076.31 120.347C2096.66 118.971 2113.76 116.279 2128.85 117.288C2220.46 124.447 2243.05 132.003 2339.8 161.248C2378.76 173.026 2412.22 188.015 2449.62 202.638C2527.01 232.985 2614.28 301.479 2796.4 351.495C2806.34 354.218 2817.03 357.002 2828.36 359.786C2915.86 381.2 3053.76 405 3245.59 401.574" stroke="#E4F1FD" stroke-miterlimit="10"/>
<path d="M-55.6792 417.083C29.9172 405.612 104.474 395.669 163.369 389.153C310.056 372.726 356.813 374.776 430.85 353.209C501.189 332.774 520.55 312.124 590.542 299.98C652.037 289.303 703.013 288.692 720.179 290.374C800.747 298.236 818.144 315.979 896.573 335.435C988.065 358.134 1080.31 351.006 1112.79 357.583C1216.82 350.455 1291.96 315.795 1339.58 294.198C1346.2 290.743 1352.44 287.086 1358.25 283.246C1487.43 215.303 1436.22 156.017 1534.3 130.595C1611.34 110.619 1716.53 120.929 1781.26 122.55C1840.62 124.049 1885.58 128.179 1926.45 130.29C1973.03 132.706 2016.44 130.657 2070.94 125.426C2091.57 123.437 2108.62 120.225 2123.65 121.387C2215.14 128.546 2235.83 139.528 2330.56 171.618C2368.13 184.375 2400.78 200.313 2438.46 215.609C2512.39 245.649 2602.66 316.254 2787.61 367.74C2797.67 370.554 2808.42 373.368 2819.92 376.244C2908.12 398.025 3047.7 422.712 3242.35 419.806" stroke="#E4F1FD" stroke-miterlimit="10"/>
<path d="M-52.8481 403.837C30.6676 392.366 103.953 382.118 162.906 375.173C304.68 358.44 352.709 359.48 426.399 338.066C495.177 317.968 515.579 297.808 583.316 285.724C642.962 275.048 692.32 273.488 710.006 275.048C789.071 281.809 807.74 297.532 884.782 315.948C973.788 337.362 1062.04 330.999 1096.78 338.525C1197 332.407 1265.83 297.043 1321.14 282.145C1328.48 277.985 1334.84 274.62 1339.93 272.233C1471.3 211.418 1427.43 155.986 1522.74 132.859C1601.05 113.801 1706.7 124.538 1773.4 125.976C1833.16 127.261 1879.17 130.84 1920.72 132.095C1968.12 133.471 2012.33 129.402 2065.5 122.764C2086.43 120.164 2103.42 116.432 2118.39 117.625C2209.82 124.783 2228.55 139.039 2321.19 174.096C2357.43 187.771 2389.28 204.688 2427.25 220.687C2497.76 250.391 2590.99 323.168 2779 376.091C2789.13 378.926 2800.02 381.822 2811.65 384.779C2900.6 406.866 3042.2 432.379 3239.29 429.84" stroke="#E4F1FD" stroke-miterlimit="10"/>
<path d="M-49.8994 391.907C31.709 380.435 103.723 369.85 162.733 362.539C299.364 345.53 348.895 345.53 421.95 323.994C489.167 304.262 510.61 284.592 576.035 272.539C633.831 261.893 681.571 259.507 699.835 260.823C777.455 266.421 797.337 280.156 873.224 297.532C959.918 317.417 1044.01 312.124 1081 320.537C1177.52 315.765 1245.66 283.613 1302.88 271.224C1308.88 268.058 1315.23 265.085 1321.9 262.322C1455.29 208.573 1418.94 157.302 1511.41 136.224C1591.05 118.084 1697.05 129.249 1765.72 130.473C1825.94 131.574 1872.99 134.603 1915.18 134.878C1963.38 135.215 2008.46 129.066 2060.48 121.082C2081.63 117.839 2098.62 113.617 2113.59 114.963C2204.85 122.152 2221.73 139.803 2312.3 177.706C2346.97 192.298 2378.24 210.163 2416.33 226.866C2483.43 256.173 2579.55 331.183 2770.62 385.574C2780.79 388.633 2791.83 391.448 2803.62 394.446C2893.26 417.175 3036.54 443.392 3236.46 441.587" stroke="#E4F1FD" stroke-miterlimit="10"/>
<path d="M-46.6631 379.976C32.8069 368.504 103.607 357.583 162.56 349.844C294.046 332.651 344.503 331.642 417.499 310.075C483.156 290.68 505.639 271.499 568.81 259.507C624.873 248.862 670.879 247.974 689.662 246.72C765.665 241.581 786.934 262.934 861.202 279.239C945.296 297.594 1025.52 293.341 1064.76 302.672C1157.64 299.093 1224.97 270.276 1284.39 260.395C1290.44 257.539 1296.85 254.903 1303.58 252.502C1438.93 205.85 1410.21 158.709 1500.08 139.712C1581 122.519 1687.4 134.052 1758.09 135.123C1818.77 136.01 1866.8 138.457 1909.69 137.846C1958.7 137.142 2004.53 128.852 2055.45 119.491C2076.89 115.606 2093.77 110.925 2108.74 112.088C2199.94 119.307 2214.97 140.262 2303.34 181.102C2336.92 196.612 2367.2 215.456 2405.69 232.862C2469.27 261.741 2568.45 339.014 2762.59 394.996C2772.87 397.933 2783.99 400.992 2795.93 404.174C2886.27 427.362 3031.45 454.527 3233.97 453.12" stroke="#E4F1FD" stroke-miterlimit="10"/>
<path d="M-43.542 368.015C33.8473 356.421 103.319 345.316 162.386 337.179C288.729 319.803 340.399 317.723 413.049 296.125C477.145 277.097 500.668 258.529 561.528 246.292C615.799 235.646 660.244 234.055 679.433 232.434C753.528 226.316 776.473 245.527 849.412 260.792C931.02 277.893 1007.31 274.405 1048.75 284.654C1137.93 282.237 1204.8 256.815 1265.72 249.412C1271.83 246.86 1278.31 244.559 1285.08 242.529C1422.29 202.944 1401.54 159.933 1488.06 143.016C1570.54 126.833 1677.11 138.733 1749.71 139.589C1810.85 140.293 1859.92 142.159 1903.5 140.629C1953.32 138.886 1999.91 128.393 2049.73 117.9C2071.4 113.311 2088.28 108.172 2103.19 109.365C2194.28 116.585 2207.57 140.813 2293.92 184.62C2326.17 201.047 2355.64 220.84 2394.37 238.981C2454.94 267.4 2556.66 346.968 2753.86 404.174C2764.22 407.213 2775.46 410.272 2787.55 413.351C2878.64 436.968 3025.62 464.959 3230.8 464.041" stroke="#E4F1FD" stroke-miterlimit="10"/>
<path d="M-40.4209 356.084C34.7144 344.643 103.087 333.08 162.213 324.514C283.585 307.016 336.296 303.773 408.599 282.206C471.192 263.515 495.698 245.282 554.304 233.26C606.725 222.614 649.61 220.32 669.26 218.331C741.39 211.081 766.069 228.335 837.621 242.529C916.745 258.223 989.048 255.653 1032.74 266.819C1118.28 265.595 1184.17 243.508 1247.28 238.614C1253.47 236.377 1260 234.422 1266.82 232.771C1405.53 200.13 1393.04 161.585 1476.5 146.534C1559.96 131.483 1667.23 143.474 1741.85 144.239C1803.4 144.759 1853.51 146.075 1897.9 143.627C1948.47 140.844 1995.8 128.332 2044.58 116.401C2066.49 111.109 2083.36 105.572 2098.22 106.734C2189.19 113.984 2200.81 141.425 2284.67 188.26C2315.71 205.575 2344.37 226.316 2383.33 245.221C2440.66 273.09 2545.16 355.014 2745.36 413.81C2755.77 416.869 2767.15 419.928 2779.41 423.263C2871.07 447.461 3019.95 476.278 3227.73 475.727" stroke="#E4F1FD" stroke-miterlimit="10"/>
<path d="M-37.2993 344.184C35.9287 332.743 102.915 320.873 162.098 311.91C278.153 294.29 332.193 289.915 404.149 268.317C465.182 249.963 490.844 232.25 547.022 220.381C597.709 209.735 639.034 206.737 659.089 204.382C729.312 196.153 755.609 211.265 825.889 224.419C902.469 238.736 970.785 237.023 1016.62 249.106C1098.46 249.106 1163.59 230.354 1228.67 227.967C1234.98 226.046 1241.6 224.418 1248.44 223.103C1389.23 197.346 1384.61 163.328 1464.94 150.113C1550.42 136.071 1657.35 148.522 1733.99 148.95C1795.94 149.317 1847.09 150.051 1892.06 146.686C1943.44 142.862 1991.41 127.995 2039.21 114.994C2061.34 108.875 2078.16 103.032 2093.02 104.226C2183.93 111.445 2193.87 142.128 2275.42 191.992C2305.19 210.194 2333.22 231.761 2372.17 251.553C2426.39 278.871 2533.54 363.151 2736.81 423.416C2747.33 426.536 2758.79 429.758 2771.2 433.082C2863.67 457.556 3014.41 487.229 3224.84 487.321" stroke="#E4F1FD" stroke-miterlimit="10"/>
<path d="M-34.1782 332.192C36.9691 320.751 102.684 308.606 161.925 299.184C272.894 281.502 328.147 275.935 399.699 254.276C459.171 236.319 485.758 219.066 539.797 207.257C575.174 199.915 611.683 194.204 648.917 190.187C717.232 181.01 745.148 193.981 814.099 206.064C888.136 219.004 952.81 218.301 1000.72 231.18C1078.86 232.312 1143.31 216.955 1210.35 217.047C1216.76 215.449 1223.44 214.169 1230.29 213.223C1372.35 194.378 1376.28 164.98 1453.38 153.57C1540.48 140.691 1647.52 152.591 1726.07 153.57C1788.49 154.334 1840.62 153.875 1886.34 149.623C1938.35 144.759 1987.13 127.628 2033.95 113.464C2056.26 106.734 2073.13 100.371 2087.93 101.564C2178.73 108.814 2187.11 142.679 2266.29 195.602C2294.78 214.66 2321.95 237.237 2361.19 257.764C2412.23 284.5 2522.04 371.166 2728.37 432.899C2738.95 435.958 2750.51 439.354 2763.05 442.749C2856.28 467.743 3008.86 498.212 3221.9 498.793" stroke="#E4F1FD" stroke-miterlimit="10"/>
<path d="M-31.0571 320.231C38.2985 308.79 102.51 296.4 161.752 286.581C267.634 268.899 324.044 262.108 395.307 240.418C453.103 222.828 480.787 206.034 532.515 194.287C566.991 186.747 602.504 180.611 638.745 175.932C705.268 165.867 734.687 176.666 802.309 187.618C873.803 199.242 934.315 199.273 984.714 213.161C1059.21 215.517 1122.91 203.495 1191.86 206.095C1198.38 204.833 1205.12 203.891 1211.97 203.28C1355.65 191.197 1368.02 166.571 1441.83 156.904C1530.6 145.279 1637.64 157.332 1718.21 158.066C1781.09 158.617 1834.2 157.608 1880.62 152.438C1933.56 146.534 1982.74 127.139 2028.75 111.812C2051.11 104.348 2068.11 97.5874 2082.84 98.7804C2173.58 106.061 2180.4 143.107 2257.1 199.089C2284.44 219.035 2310.85 242.499 2350.15 263.821C2398.24 289.946 2510.6 379.028 2720.05 442.26C2730.68 445.472 2742.42 448.837 2755.13 452.325C2849.11 477.746 3003.66 509.041 3219.18 510.142" stroke="#E4F1FD" stroke-miterlimit="10"/>
<path d="M-27.9946 308.27C39.0491 296.859 102.336 284.195 161.577 273.824C262.201 256.112 319.997 248.097 390.856 226.377C447.207 209.124 475.816 192.727 525.29 181.132C558.864 173.536 593.347 167.119 628.514 161.921C693.304 151 724.225 159.566 790.344 169.447C859.353 179.695 915.878 180.582 968.53 195.419C1039.33 198.937 1102.27 190.279 1173.24 195.419C1179.89 194.482 1186.68 193.878 1193.53 193.614C1338.83 188.23 1359.46 168.59 1430.09 160.544C1520.54 150.205 1627.58 162.38 1710.17 162.808C1773.46 163.175 1827.61 161.615 1874.72 155.527C1928.47 148.583 1978.17 126.925 2023.31 110.436C2045.8 102.207 2062.85 95.1402 2077.58 96.2721C2168.21 103.553 2173.64 143.811 2247.79 202.852C2273.92 223.654 2299.81 247.975 2338.94 270.153C2384.25 295.636 2498.92 387.012 2711.49 451.866C2722.19 455.139 2734.04 458.565 2746.92 462.114C2841.59 487.964 2997.88 520.115 3216.17 521.614" stroke="#E4F1FD" stroke-miterlimit="10"/>
<path d="M-24.873 296.309C40.0901 284.867 102.279 272.019 161.405 261.098C257.231 243.447 315.894 234.116 386.406 212.397C441.255 195.51 470.846 179.633 518.008 168.039C550.694 160.27 584.194 153.499 618.343 147.757C681.398 135.979 713.707 142.342 778.727 151.122C845.193 160.055 897.788 161.768 952.694 177.492C1019.85 182.203 1082.04 176.911 1154.98 184.497C1161.77 184.018 1168.6 183.763 1175.44 183.733C1322.24 180.276 1351.37 170.425 1418.71 163.94C1510.83 155.068 1617.93 167.794 1702.43 167.366C1766 167.03 1821.37 165.408 1869.17 158.403C1923.73 150.419 1973.84 126.466 2018.23 108.845C2040.83 99.8511 2057.99 92.3868 2072.67 93.5493C2163.24 100.83 2167.28 144.239 2238.78 206.34C2263.75 228.029 2288.89 253.205 2328.13 276.302C2370.32 301.142 2487.71 395.088 2703.06 461.288C2713.88 464.632 2725.81 468.11 2738.83 471.719C2834.2 498.089 2992.39 531.036 3213.28 533.116" stroke="#E4F1FD" stroke-miterlimit="10"/>
<path d="M-21.752 284.378C41.1305 272.967 102.106 259.905 161.231 248.464C252.087 230.904 311.791 220.258 381.956 198.477C435.244 181.958 465.818 166.54 510.784 155.007C552.397 144.3 585.919 138.182 608.17 133.593C669.55 121.02 703.245 125.15 766.937 132.767C824.551 139.769 881.251 148.731 936.685 159.596C997.487 170.915 1060.95 182.172 1136.49 173.637C1143.34 173.132 1150.31 173.215 1157.12 173.882C1305.89 181.652 1343.05 172.352 1407.15 167.366C1501.01 160.085 1608.05 172.628 1694.57 171.955C1758.78 171.465 1814.96 169.232 1863.45 161.339C1918.76 152.162 1969.33 126.037 2012.97 107.285C2035.62 97.5259 2052.96 89.6946 2067.64 90.8876C2158.04 98.199 2160.81 144.79 2229.47 209.949C2253.29 232.526 2277.85 258.498 2316.92 282.481C2355.99 306.465 2476.26 402.889 2694.45 470.801C2705.31 474.136 2717.56 477.715 2730.57 481.417C2826.68 508.215 2986.66 541.988 3210.28 544.588" stroke="#E4F1FD" stroke-miterlimit="10"/>
<path d="M-18.6328 272.417C42.169 261.006 101.988 247.944 161.114 235.707C246.941 218.24 307.743 206.248 377.503 184.436C429.52 168.284 460.846 153.325 503.499 141.853C543.321 131.116 575.687 124.416 597.997 119.43C657.758 106.061 692.725 107.988 755.145 114.443C816.467 120.776 857.155 128.852 920.673 141.67C977.892 153.233 1038.81 155.466 1118.05 162.778C1125.33 163.451 1132.32 163.389 1138.85 164.001C1289.47 178.318 1334.73 174.341 1395.59 170.793C1491.12 165.256 1598.22 177.431 1686.65 176.544C1751.32 175.871 1808.54 173.056 1857.73 164.307C1913.85 154.212 1964.76 125.701 2007.71 105.786C2030.42 95.2625 2048.16 87.064 2062.56 88.2571C2152.83 95.5684 2154.39 145.371 2220.46 213.682C2243.17 237.145 2267.21 263.851 2306.05 288.814C2342.64 312.308 2464.99 411.026 2686.18 480.407C2697.16 483.803 2709.3 487.443 2722.65 491.237C2819.46 518.463 2981.34 553.062 3207.5 556.182" stroke="#E4F1FD" stroke-miterlimit="10"/>
<path d="M-15.2231 260.486C43.498 249.076 102.219 235.768 161.229 223.134C242.144 205.789 303.928 192.543 373.342 170.578C423.567 154.793 456.164 140.293 496.564 128.852C534.536 118.145 565.515 110.894 588.113 105.388C646.314 91.2242 682.552 90.9489 743.701 96.2106C802.422 101.289 839.585 109.518 904.953 123.743C958.761 135.551 1018.58 141.088 1099.84 151.887C1107.07 152.835 1114.23 153.233 1120.88 154.12C1273.46 174.953 1326.87 170.731 1384.32 174.219C1482.18 179.907 1580.65 182.197 1679.08 181.071C1744.21 180.245 1802.41 176.849 1852.47 167.121C1909.4 155.986 1960.6 125.181 2002.74 104.134C2025.45 92.8455 2043.19 84.3105 2057.76 85.473C2147.98 92.8149 2148.27 145.799 2211.61 217.016C2233.23 241.336 2256.87 268.776 2295.36 294.748C2329.17 317.539 2453.78 418.796 2678.03 489.615C2689.07 493.072 2701.15 496.774 2714.85 500.628C2812.41 528.344 2976.09 563.769 3204.9 567.348" stroke="#E4F1FD" stroke-miterlimit="10"/>
<path d="M-12.3901 251.89C44.2503 240.48 101.873 227.081 160.999 213.804C237.059 196.642 299.71 181.867 369.066 159.994C417.788 144.698 451.368 130.504 489.513 119.154C525.636 108.417 555.286 100.616 578.057 94.6813C634.871 79.7527 672.208 77.2748 732.085 81.3435C788.263 85.1674 822.074 93.3965 889.117 109.426C939.631 121.51 998.584 130.228 1081.58 144.606C1088.8 145.861 1095.97 146.687 1102.79 147.88C1257.45 175.167 1318.78 177.737 1372.93 181.224C1471.93 187.672 1571.67 190.361 1671.39 189.27C1736.93 188.26 1796.17 184.283 1846.69 173.638C1904.48 161.401 1955.92 128.393 1997.65 106.337C2020.31 94.2836 2038.11 85.351 2052.85 86.544C2142.95 93.9165 2142.14 150.082 2202.6 224.389C2223.12 249.626 2246.52 277.74 2284.49 304.721C2315.65 326.839 2442.45 430.605 2669.77 502.892C2680.86 506.41 2693.29 510.173 2706.93 514.089C2805.18 542.263 2970.77 578.514 3202.19 582.613" stroke="#E4F1FD" stroke-miterlimit="10"/>
<path d="M-9.44238 247.271C45.1174 235.86 101.758 222.461 160.421 208.481C231.626 191.503 295.433 175.381 363.98 153.417C411.199 138.396 445.704 124.722 481.595 113.464C515.926 102.696 544.247 94.4059 567.25 87.8594C622.676 72.166 661.111 67.5161 719.659 70.3611C773.294 72.9614 803.983 80.9763 872.472 98.8722C919.75 111.109 978.008 123.101 1062.45 141.088C1069.73 142.618 1076.96 143.872 1083.83 145.371C1240.81 179.175 1309.59 188.627 1360.74 192.023C1460.32 198.6 1568.46 202.822 1662.84 201.2C1728.84 200.068 1789.06 195.48 1840.33 183.916C1898.88 170.701 1950.55 135.368 1991.76 111.996C2014.41 99.1476 2032.62 89.909 2047.13 91.1021C2137.17 98.444 2135.21 157.852 2192.83 235.187C2212.25 261.312 2235.54 290.068 2272.82 318.12C2301.37 339.534 2430.31 445.809 2660.69 519.564C2671.9 523.113 2684.39 526.967 2698.2 530.975C2797.21 559.578 2964.58 596.655 3198.66 601.335" stroke="#E4F1FD" stroke-miterlimit="10"/>
<path d="M-6.20654 242.866C46.3303 231.486 102.046 218.087 160.42 203.342C228.664 186.416 295.183 167.607 359.702 146.992C405.419 132.309 440.617 119.063 474.544 107.927C506.967 97.0674 534.016 88.3182 557.25 81.2517C611.348 64.7629 650.822 57.9717 708.041 59.5624C759.191 60.9696 786.933 68.5868 856.635 88.5018C900.907 101.136 958.53 116.187 1044.18 137.754C1051.47 139.589 1058.75 141.272 1065.74 143.046C1224.97 183.366 1300.68 201.323 1349.35 203.005C1451.01 206.431 1558.75 215.242 1655.15 213.314C1721.62 212.06 1782.82 206.799 1834.78 194.348C1894.14 180.092 1945.98 142.343 1986.67 117.869C2009.21 104.256 2027.71 94.6506 2042.21 95.8131C2132.14 103.216 2128.91 165.837 2183.81 246.2C2203.2 276.304 2229.44 305.047 2261.95 331.795C2287.96 352.566 2418.99 461.318 2652.37 536.543C2663.64 540.152 2676.24 544.068 2690.22 548.137C2789.92 577.198 2959.21 615.101 3195.89 620.21" stroke="#E4F1FD" stroke-miterlimit="10"/>
<path d="M-3.08496 238.644C120.729 210.702 240.497 177.983 355.252 140.752C539.854 80.8233 590.31 48.4577 696.251 48.9778C773.409 49.3754 791.615 66.7513 1025.69 134.634C1201.74 185.69 1289.76 211.112 1337.79 214.171C1510.37 224.847 1699.02 238.063 1829.06 204.994C1922.8 181.163 1996.67 97.6792 2037.13 100.983C2157.05 110.833 2109.72 224.878 2250.97 345.714C2274.5 365.843 2407.54 477.042 2643.99 553.735C2735.77 583.5 2920.02 632.997 3193.05 639.391" stroke="#E4F1FD" stroke-miterlimit="10"/>
</g>
</svg>
